<?xml version="1.0"?><svg xmlns="http://www.w3.org/2000/svg" viewBox="0 0 100 100"><path d="M71.4 44.9c-.7-1.9-.6-3.9.4-5.7 1.8-3.1 5.8-4.2 9-2.4 2 1.2 4.7.5 5.8-1.6l.9-1.5c1.2-2 .5-4.7-1.6-5.8L51.6 8.1c-2-1.2-4.7-.5-5.8 1.6l-.9 1.5c-1.2 2-.5 4.7 1.6 5.8 3.1 1.8 4.2 5.8 2.4 9-1 1.7-2.7 2.9-4.7 3.2-7.2 1.1-14.5 5-20.4 11.1L72 68.1c2.3-8.2 2-16.4-.6-23.2z" fill="#333"/><path d="M29.8 85.6c14.5 8.4 24.2 10 33-.2L13.4 56.8C8.8 69.6 15 77.1 29.8 85.6z" fill="#333"/><path d="M14.7 53.7l50.2 29c.9-1.3 1.8-2.7 2.7-4.3 1.3-2.3 2.4-4.7 3.3-7.1L21.5 42.8c-1.6 2-3.1 4.1-4.5 6.4-.9 1.6-1.7 3.1-2.3 4.5z" fill="#333"/><metadata xmlns:d="https://loading.io/stock/">
<d:name>pottery</d:name>
<d:tags>pottery,flowerpot,florist,blossom,bloom,bud,petal,bonsai,bottle,vase,potion</d:tags>
<d:license>by</d:license>
<d:slug>f4ea0z</d:slug>
</metadata></svg>